<mxfile host="Electron" modified="2023-07-12T08:37:15.721Z" agent="Mozilla/5.0 (Windows NT 10.0; Win64; x64) AppleWebKit/537.36 (KHTML, like Gecko) draw.io/21.5.0 Chrome/112.0.5615.204 Electron/24.5.1 Safari/537.36" etag="S15Rc9wd0IiKq8lXvzP0" version="21.5.0" type="device">
  <diagram name="第 1 页" id="YLy_ruMkEDVEnxSW_SiJ">
    <mxGraphModel dx="810" dy="469" grid="1" gridSize="10" guides="1" tooltips="1" connect="1" arrows="1" fold="1" page="1" pageScale="1" pageWidth="827" pageHeight="1169" math="0" shadow="0">
      <root>
        <mxCell id="0" />
        <mxCell id="1" parent="0" />
        <mxCell id="ybbgELJD8R_0vK6unTCd-1" value="" style="edgeStyle=orthogonalEdgeStyle;rounded=0;orthogonalLoop=1;jettySize=auto;html=1;strokeColor=#FF6392;fontColor=default;fillColor=#FFE45E;labelBackgroundColor=none;" parent="1" source="ybbgELJD8R_0vK6unTCd-4" target="ybbgELJD8R_0vK6unTCd-7" edge="1">
          <mxGeometry relative="1" as="geometry" />
        </mxCell>
        <mxCell id="ybbgELJD8R_0vK6unTCd-2" value="" style="edgeStyle=orthogonalEdgeStyle;rounded=0;orthogonalLoop=1;jettySize=auto;html=1;strokeColor=#FF6392;fontColor=default;fillColor=#FFE45E;labelBackgroundColor=none;" parent="1" source="ybbgELJD8R_0vK6unTCd-4" target="ybbgELJD8R_0vK6unTCd-11" edge="1">
          <mxGeometry relative="1" as="geometry" />
        </mxCell>
        <mxCell id="_Quq3Bp1UHzrxACmdeqN-1" style="edgeStyle=orthogonalEdgeStyle;rounded=0;orthogonalLoop=1;jettySize=auto;html=1;labelBackgroundColor=none;strokeColor=#FF6392;fontColor=default;" edge="1" parent="1" source="ybbgELJD8R_0vK6unTCd-4" target="ybbgELJD8R_0vK6unTCd-21">
          <mxGeometry relative="1" as="geometry">
            <Array as="points">
              <mxPoint x="210" y="300" />
              <mxPoint x="628" y="300" />
            </Array>
          </mxGeometry>
        </mxCell>
        <mxCell id="ybbgELJD8R_0vK6unTCd-4" value="The bird&lt;br&gt;The sound of music" style="rounded=0;whiteSpace=wrap;html=1;strokeColor=#FF6392;fontColor=#5AA9E6;fillColor=#FFE45E;labelBackgroundColor=none;" parent="1" vertex="1">
          <mxGeometry x="110" y="210" width="200" height="60" as="geometry" />
        </mxCell>
        <mxCell id="ybbgELJD8R_0vK6unTCd-5" value="" style="edgeStyle=orthogonalEdgeStyle;rounded=0;orthogonalLoop=1;jettySize=auto;html=1;strokeColor=#FF6392;fontColor=default;fillColor=#FFE45E;labelBackgroundColor=none;" parent="1" source="ybbgELJD8R_0vK6unTCd-7" edge="1">
          <mxGeometry relative="1" as="geometry">
            <mxPoint x="527" y="240" as="targetPoint" />
          </mxGeometry>
        </mxCell>
        <mxCell id="ybbgELJD8R_0vK6unTCd-6" value="" style="edgeStyle=orthogonalEdgeStyle;rounded=0;orthogonalLoop=1;jettySize=auto;html=1;strokeColor=#FF6392;fontColor=default;fillColor=#FFE45E;labelBackgroundColor=none;" parent="1" source="ybbgELJD8R_0vK6unTCd-7" target="ybbgELJD8R_0vK6unTCd-12" edge="1">
          <mxGeometry relative="1" as="geometry" />
        </mxCell>
        <mxCell id="ybbgELJD8R_0vK6unTCd-7" value="flew&lt;br&gt;came&amp;nbsp;" style="rounded=0;whiteSpace=wrap;html=1;strokeColor=#FF6392;fontColor=#5AA9E6;fillColor=#FFE45E;labelBackgroundColor=none;" parent="1" vertex="1">
          <mxGeometry x="387" y="210" width="60" height="60" as="geometry" />
        </mxCell>
        <mxCell id="ybbgELJD8R_0vK6unTCd-8" value="" style="edgeStyle=orthogonalEdgeStyle;rounded=0;orthogonalLoop=1;jettySize=auto;html=1;strokeColor=#FF6392;fontColor=default;fillColor=#FFE45E;labelBackgroundColor=none;" parent="1" target="ybbgELJD8R_0vK6unTCd-13" edge="1">
          <mxGeometry relative="1" as="geometry">
            <mxPoint x="622" y="210" as="sourcePoint" />
          </mxGeometry>
        </mxCell>
        <mxCell id="ybbgELJD8R_0vK6unTCd-9" style="edgeStyle=orthogonalEdgeStyle;rounded=0;orthogonalLoop=1;jettySize=auto;html=1;strokeColor=#FF6392;fontColor=default;fillColor=#FFE45E;labelBackgroundColor=none;" parent="1" source="ybbgELJD8R_0vK6unTCd-10" target="ybbgELJD8R_0vK6unTCd-18" edge="1">
          <mxGeometry relative="1" as="geometry">
            <Array as="points">
              <mxPoint x="624" y="290" />
              <mxPoint x="200" y="290" />
            </Array>
          </mxGeometry>
        </mxCell>
        <mxCell id="ybbgELJD8R_0vK6unTCd-10" value="away&lt;br&gt;from the window" style="rounded=0;whiteSpace=wrap;html=1;strokeColor=#FF6392;fontColor=#5AA9E6;fillColor=#FFE45E;labelBackgroundColor=none;" parent="1" vertex="1">
          <mxGeometry x="510" y="200" width="190" height="60" as="geometry" />
        </mxCell>
        <mxCell id="ybbgELJD8R_0vK6unTCd-11" value="主语" style="ellipse;whiteSpace=wrap;html=1;fillColor=#FFE45E;strokeColor=#FF6392;fontColor=#5AA9E6;rounded=0;labelBackgroundColor=none;" parent="1" vertex="1">
          <mxGeometry x="170" y="60" width="80" height="80" as="geometry" />
        </mxCell>
        <mxCell id="ybbgELJD8R_0vK6unTCd-12" value="谓语" style="ellipse;whiteSpace=wrap;html=1;fillColor=#FFE45E;strokeColor=#FF6392;fontColor=#5AA9E6;rounded=0;labelBackgroundColor=none;" parent="1" vertex="1">
          <mxGeometry x="377" y="60" width="80" height="80" as="geometry" />
        </mxCell>
        <mxCell id="ybbgELJD8R_0vK6unTCd-13" value="状语/副词" style="ellipse;whiteSpace=wrap;html=1;fillColor=#FFE45E;strokeColor=#FF6392;fontColor=#5AA9E6;rounded=0;labelBackgroundColor=none;" parent="1" vertex="1">
          <mxGeometry x="582" y="60" width="80" height="80" as="geometry" />
        </mxCell>
        <mxCell id="ybbgELJD8R_0vK6unTCd-14" value="" style="edgeStyle=orthogonalEdgeStyle;rounded=0;orthogonalLoop=1;jettySize=auto;html=1;strokeColor=#FF6392;fontColor=default;fillColor=#FFE45E;labelBackgroundColor=none;" parent="1" target="ybbgELJD8R_0vK6unTCd-4" edge="1">
          <mxGeometry relative="1" as="geometry">
            <mxPoint x="90" y="240" as="sourcePoint" />
          </mxGeometry>
        </mxCell>
        <mxCell id="ybbgELJD8R_0vK6unTCd-15" value="" style="edgeStyle=orthogonalEdgeStyle;rounded=0;orthogonalLoop=1;jettySize=auto;html=1;strokeColor=#FF6392;fontColor=default;fillColor=#FFE45E;labelBackgroundColor=none;" parent="1" source="ybbgELJD8R_0vK6unTCd-16" edge="1">
          <mxGeometry relative="1" as="geometry">
            <mxPoint x="527" y="357" as="targetPoint" />
          </mxGeometry>
        </mxCell>
        <mxCell id="ybbgELJD8R_0vK6unTCd-16" value="flew&lt;br&gt;came&amp;nbsp;" style="rounded=0;whiteSpace=wrap;html=1;strokeColor=#FF6392;fontColor=#5AA9E6;fillColor=#FFE45E;labelBackgroundColor=none;" parent="1" vertex="1">
          <mxGeometry x="387" y="327" width="60" height="60" as="geometry" />
        </mxCell>
        <mxCell id="ybbgELJD8R_0vK6unTCd-17" value="" style="edgeStyle=orthogonalEdgeStyle;rounded=0;orthogonalLoop=1;jettySize=auto;html=1;strokeColor=#FF6392;fontColor=default;fillColor=#FFE45E;labelBackgroundColor=none;" parent="1" source="ybbgELJD8R_0vK6unTCd-18" target="ybbgELJD8R_0vK6unTCd-16" edge="1">
          <mxGeometry relative="1" as="geometry" />
        </mxCell>
        <mxCell id="ybbgELJD8R_0vK6unTCd-18" value="away&lt;br&gt;from the window" style="rounded=0;whiteSpace=wrap;html=1;strokeColor=#FF6392;fontColor=#5AA9E6;fillColor=#FFE45E;labelBackgroundColor=none;" parent="1" vertex="1">
          <mxGeometry x="110" y="327" width="190" height="60" as="geometry" />
        </mxCell>
        <mxCell id="ybbgELJD8R_0vK6unTCd-19" value="" style="edgeStyle=orthogonalEdgeStyle;rounded=0;orthogonalLoop=1;jettySize=auto;html=1;strokeColor=#FF6392;fontColor=default;fillColor=#FFE45E;labelBackgroundColor=none;" parent="1" target="ybbgELJD8R_0vK6unTCd-18" edge="1">
          <mxGeometry relative="1" as="geometry">
            <mxPoint x="90" y="357" as="sourcePoint" />
          </mxGeometry>
        </mxCell>
        <mxCell id="ybbgELJD8R_0vK6unTCd-21" value="The bird&lt;br&gt;The sound of music" style="rounded=0;whiteSpace=wrap;html=1;strokeColor=#FF6392;fontColor=#5AA9E6;fillColor=#FFE45E;labelBackgroundColor=none;" parent="1" vertex="1">
          <mxGeometry x="528" y="327" width="200" height="60" as="geometry" />
        </mxCell>
        <mxCell id="ybbgELJD8R_0vK6unTCd-22" value="正常语序" style="rhombus;whiteSpace=wrap;html=1;strokeColor=#FF6392;fontColor=#5AA9E6;fillColor=#FFE45E;labelBackgroundColor=none;" parent="1" vertex="1">
          <mxGeometry x="10" y="200" width="80" height="80" as="geometry" />
        </mxCell>
        <mxCell id="ybbgELJD8R_0vK6unTCd-23" value="倒装语序" style="rhombus;whiteSpace=wrap;html=1;strokeColor=#FF6392;fontColor=#5AA9E6;fillColor=#FFE45E;labelBackgroundColor=none;" parent="1" vertex="1">
          <mxGeometry x="10" y="317" width="80" height="80" as="geometry" />
        </mxCell>
        <mxCell id="ybbgELJD8R_0vK6unTCd-20" value="完全倒装处理" style="text;html=1;align=center;verticalAlign=middle;resizable=0;points=[];autosize=1;strokeColor=none;fillColor=none;fontColor=#5AA9E6;labelBackgroundColor=none;" parent="1" vertex="1">
          <mxGeometry x="366" y="280" width="100" height="30" as="geometry" />
        </mxCell>
      </root>
    </mxGraphModel>
  </diagram>
</mxfile>
